# xmcd CD database file
#
# Track frame offsets:
#	150
#	17313
#	42625
#	59813
#	78710
#	95375
#	116130
#	135748
#	157405
#	173430
#	193913
#	214345
#	232633
#	253273
#	276798
#	296510
#
# Disc length: 4217 seconds
#
# Revision: 0
# Processed by: cddbd v1.5.1PL2 Copyright (c) Steve Scherf et al.
# Submitted via: CDex 1.51
#
DISCID=f1107710
DTITLE=森進一 - Shinichi Mori Best
DYEAR=2005
DGENRE=JPop
TTITLE0=女のためいき
TTITLE1=盛り場ブルース
TTITLE2=花と蝶
TTITLE3=港町ブルース
TTITLE4=おふくろさん
TTITLE5=冬の旅
TTITLE6=襟裳岬
TTITLE7=さらば友よ
TTITLE8=新宿・みなと町
TTITLE9=冬のリヴィエラ
TTITLE10=北の蛍
TTITLE11=ゆうすげの恋
TTITLE12=わるいひと
TTITLE13=女心
TTITLE14=さらば青春の影よ
TTITLE15=秋のホテル(ニューボーカルバージョン)
EXTD=YEAR: 2005
EXTT0=
EXTT1=
EXTT2=
EXTT3=
EXTT4=
EXTT5=
EXTT6=
EXTT7=
EXTT8=
EXTT9=
EXTT10=
EXTT11=
EXTT12=
EXTT13=
EXTT14=
EXTT15=
PLAYORDER=
